# xmcd CD database file
#
# Track frame offsets:
#	150
#	18139
#	36042
#	56769
#	72129
#	88329
#	107360
#	125718
#	139717
#	155462
#	170562
#	186064
#	201986
#
# Disc length: 2980 seconds
#
# Revision: 0
# Processed by: cddbd v1.5.2PL0 Copyright (c) Steve Scherf et al.
# Submitted via: CDex 1.70beta3
#
DISCID=b10ba20d
DTITLE=GIZA Jazz - GIZA Jazz compilation vol.2
DYEAR=2009
DGENRE=Jazz
TTITLE0=As Time Goes By (森川七月)
TTITLE1=Feel Like Makin' Love (森川七月)
TTITLE2='Round midnight (中島紅音)
TTITLE3=Moon River (中島紅音)
TTITLE4=Angel eyes (栗原小夜)
TTITLE5=L-O-V-E (栗原小夜)
TTITLE6=Garota de Ipanema (小泉ニロ)
TTITLE7=Batucada (小泉ニロ)
TTITLE8=Quiz-s quiz-s quiz-s (伊奈木紫乃)
TTITLE9=Bamboleo (伊奈木紫乃)
TTITLE10=I feel the earth move (岡崎雪)
TTITLE11=My favorite things (早川えみ)
TTITLE12=涙そうそう(English version) (早川えみ)
EXTD=YEAR: 2009
EXTT0=
EXTT1=
EXTT2=
EXTT3=
EXTT4=
EXTT5=
EXTT6=
EXTT7=
EXTT8=
EXTT9=
EXTT10=
EXTT11=
EXTT12=
PLAYORDER=
